{"title":"The.Experiment.2010.DVDRip.XviD.Ac3.Feel-Free","uid":5810835,"size":1128399601,"categoryP":"video","categoryS":"movies","magnet":"?xt=urn:btih:850bf9a8f065f031fce7ba046ef87ab5e46251c6&amp;dn=The.Experiment.2010.DVDRip.XviD.Ac3.Feel-Free&amp;tr=udp%3A%2F%2Ftracker.openbittorrent.com%3A80&amp;tr=udp%3A%2F%2Fopen.demonii.com%3A1337&amp;tr=udp%3A%2F%2Ftracker.coppersurfer.tk%3A6969&amp;tr=udp%3A%2F%2Fexodus.desync.com%3A6969","seeders":5,"leechers":1,"uploader":"neon","files":-1,"time":1283622889,"description":"\nGenre:Drama | Thriller\nLanguage:English\n &lt;a href=&quot; http://www.imdb.com/title/tt0997152/&quot; rel=&quot;nofollow&quot; target=&quot;_NEW&quot;&gt; http://www.imdb.com/title/tt0997152/&lt;/a&gt;\n\nGeneral\nComplete name :The.Experiment.2010.DVDRip.XviD.Ac3.Feel-Free\nFormat : AVI\nFormat/Info : Audio Video Interleave\nFile size : 1.05 GiB\nDuration : 1h 36mn\nOverall bit rate : 1 565 Kbps\nVideo #0\nID : 0\nFormat : MPEG-4 Visual\nFormat profile : AdvancedSimple@L5\nFormat settings, BVOP : Yes\nFormat settings, QPel : No\nFormat settings, GMC : No warppoints\nFormat settings, Matrix : Default (H.263)\nMuxing mode : Packed bitstream\nCodec ID : XVID\nCodec ID/Hint : XviD\nDuration : 1h 36mn\nBit rate : 1 299 Kbps\nWidth : 652 pixels\nHeight : 352 pixels\nDisplay aspect ratio : 1.852\nFrame rate : 23.976 fps\nResolution : 24 bits\nColorimetry : 4:2:0\nScan type : Progressive\nBits/(Pixel*Frame) : 0.236\nStream size : 893 MiB (83%)\nWriting library : XviD 1.2.1 (UTC 2008-12-04)\nAudio #1\nID : 1\nFormat : AC-3\nFormat/Info : Audio Coding 3\nCodec ID : 2000\nDuration : 1h 36mn\nBit rate mode : Constant\nBit rate : 256 Kbps\nChannel(s) : 2 channels\nChannel positions : L R\nSampling rate : 48.0 KHz\nStream size : 176 MiB (16%)\nAlignment : Split accross interleaves\nInterleave, duration : 42 ms (1.00 video frame)\nInterleave, preload duration : 500 ms\n\nPlot:\n26 men are chosen to participate in the roles of guards and prisoners in a psychological study that ultimately spirals out of control","torrent":{"xt":"urn:btih:850bf9a8f065f031fce7ba046ef87ab5e46251c6","amp;dn":"The.Experiment.2010.DVDRip.XviD.Ac3.Feel-Free","amp;tr":["udp%3A%2F%2Ftracker.openbittorrent.com%3A80","udp%3A%2F%2Fopen.demonii.com%3A1337","udp%3A%2F%2Ftracker.coppersurfer.tk%3A6969","udp%3A%2F%2Fexodus.desync.com%3A6969"],"infoHash":"850bf9a8f065f031fce7ba046ef87ab5e46251c6","infoHashBuffer":{"type":"Buffer","data":[133,11,249,168,240,101,240,49,252,231,186,4,110,248,122,181,228,98,81,198]},"announce":[],"urlList":[]}}